# xmcd
#
# Track frame offsets: 
#        150
#        10580
#        23644
#        36289
#        50772
#        64145
#        78656
#        90211
#        110729
#        128276
#        143901
#        157753
#        170137
#
# Disc length: 2429 seconds
#
# Revision: 0
# Processed by: cddbd v1.5.2PL0 Copyright (c) Steve Scherf et al.
# Submitted via: ExactAudioCopy v1.2
#
DISCID=9d097b0d
DTITLE=Andres Roots - Winter
DYEAR=2016
DGENRE=Blues
TTITLE0=Karlova Blues
TTITLE1=Winter Blues
TTITLE2=Thanks for Bringing Me Down
TTITLE3=Tea For Alex
TTITLE4=All In The Cards
TTITLE5=Morganfield Blues
TTITLE6=Get Me Back
TTITLE7=Spider In My Bed
TTITLE8=Spanish Run
TTITLE9=Solitaire
TTITLE10=Someplace Nice
TTITLE11=Alligator Blues
TTITLE12=Silver Lining
EXTD=
EXTT0=
EXTT1=
EXTT2=
EXTT3=
EXTT4=
EXTT5=
EXTT6=
EXTT7=
EXTT8=
EXTT9=
EXTT10=
EXTT11=
EXTT12=
PLAYORDER=
